<?xml version="1.0" standalone="no"?>
<!DOCTYPE svg PUBLIC "-//W3C//DTD SVG 20010904//EN"
 "http://www.w3.org/TR/2001/REC-SVG-20010904/DTD/svg10.dtd">
<svg version="1.0" xmlns="http://www.w3.org/2000/svg"
 width="500.000000pt" height="500.000000pt" viewBox="0 0 500.000000 500.000000"
 preserveAspectRatio="xMidYMid meet">
<metadata>
Created by potrace 1.11, written by Peter Selinger 2001-2013
</metadata>
<g transform="translate(0.000000,500.000000) scale(0.100000,-0.100000)"
fill="#000000" stroke="none">
<path d="M2265 4830 c-461 -51 -886 -227 -1240 -515 -119 -97 -302 -286 -392
-406 -242 -323 -397 -698 -455 -1104 -17 -117 -17 -493 0 -610 62 -433 238
-838 507 -1170 97 -119 286 -302 406 -392 323 -242 698 -397 1104 -455 117
-17 493 -17 610 0 509 73 956 291 1318 642 211 204 350 394 478 655 113 232
184 462 221 720 17 117 17 493 0 610 -73 509 -291 956 -642 1318 -204 212
-395 350 -655 477 -229 112 -431 176 -680 216 -118 18 -465 27 -580 14z m565
-105 c497 -77 935 -304 1285 -666 332 -343 536 -757 612 -1239 24 -159 24
-481 0 -640 -80 -508 -303 -942 -668 -1295 -343 -332 -757 -536 -1239 -612
-159 -24 -481 -24 -640 0 -482 76 -896 280 -1239 612 -365 353 -588 787 -668
1295 -24 159 -24 481 0 640 76 482 280 896 612 1239 388 401 856 624 1440 685
83 9 404 -4 505 -19z"/>
<path d="M2337 4618 c-12 -19 -13 -53 -3 -212 11 -165 14 -190 31 -202 24 -18
28 -18 55 4 22 18 22 18 11 189 -6 94 -11 180 -11 191 0 48 -59 69 -83 30z"/>
<path d="M2598 4628 c-53 -14 -88 -59 -88 -112 0 -64 43 -104 145 -136 51 -16
75 -37 75 -65 0 -27 -18 -43 -56 -50 -40 -8 -75 14 -100 60 -38 75 -110 49
-84 -30 21 -63 94 -105 185 -105 89 0 161 70 152 149 -6 59 -34 84 -137 124
-74 29 -85 36 -85 57 0 32 40 52 81 42 19 -6 36 -21 49 -45 11 -20 28 -40 38
-43 21 -7 57 21 57 45 0 27 -37 79 -67 94 -39 20 -121 28 -165 15z"/>
<path d="M2142 4608 c-17 -17 -15 -43 12 -159 14 -57 23 -105 22 -107 -2 -1
-55 47 -119 108 -122 116 -147 129 -182 90 -17 -19 -16 -25 14 -162 54 -240
57 -248 90 -248 52 0 55 17 27 144 -14 63 -26 118 -26 122 0 3 54 -44 121
-106 107 -99 124 -111 147 -105 30 7 42 21 42 48 0 21 -69 333 -81 365 -9 24
-47 30 -67 10z"/>
<path d="M3087 4513 c-8 -16 -40 -97 -72 -181 -45 -117 -56 -158 -48 -170 15
-26 171 -84 224 -84 83 0 141 49 180 152 23 61 24 116 3 170 -20 49 -48 70
-147 109 -97 39 -122 39 -140 4z m125 -82 c61 -26 83 -54 82 -105 -2 -75 -65
-166 -116 -166 -29 0 -108 28 -108 39 0 8 92 251 96 251 1 0 22 -8 46 -19z"/>
<path d="M1590 4432 c-99 -49 -115 -61 -118 -83 -3 -28 138 -336 161 -351 18
-12 46 -3 172 59 95 46 115 60 115 78 0 13 -7 28 -15 35 -13 11 -33 5 -117
-34 -55 -25 -102 -45 -104 -44 -1 2 -12 24 -22 49 l-20 46 89 43 c82 39 90 45
87 69 -4 38 -33 37 -123 -4 -42 -19 -81 -35 -84 -35 -9 0 -44 71 -38 76 2 2
45 24 94 48 93 46 107 58 91 89 -14 27 -45 20 -168 -41z"/>
<path d="M3430 4198 c-55 -84 -100 -162 -100 -174 0 -27 25 -49 142 -124 72
-45 103 -60 118 -55 16 5 20 14 18 33 -2 21 -22 40 -90 86 l-87 59 15 26 c42
70 35 69 122 12 86 -56 106 -61 122 -31 15 28 10 33 -80 94 l-79 52 25 38 26
37 26 -17 c117 -77 152 -95 172 -89 13 4 20 15 20 31 0 19 -21 38 -112 99 -62
41 -123 75 -136 75 -18 0 -42 -29 -122 -152z"/>
<path d="M1227 4215 c-126 -94 -143 -115 -115 -143 19 -19 41 -14 86 19 24 17
44 30 46 28 2 -2 38 -51 81 -109 42 -58 86 -115 98 -127 34 -37 87 -25 87 19
0 10 -43 77 -96 149 -53 71 -95 131 -93 133 52 36 89 71 89 85 0 21 -19 41
-40 41 -8 0 -72 -43 -143 -95z"/>
<path d="M3845 3884 c-77 -64 -144 -124 -149 -135 -10 -21 16 -59 40 -59 7 0
47 28 90 63 42 34 90 73 106 86 19 15 -1 -17 -53 -88 -54 -73 -81 -120 -81
-138 0 -26 24 -53 49 -53 7 0 71 27 141 60 94 45 118 53 92 33 -88 -70 -175
-151 -178 -167 -5 -23 16 -46 42 -46 23 1 295 221 310 251 7 14 2 29 -19 59
-40 57 -44 57 -219 -24 l-78 -36 48 67 c26 38 61 86 76 107 15 21 28 45 28 52
0 23 -61 84 -84 84 -12 0 -80 -50 -161 -116z"/>
<path d="M888 3885 c-36 -20 -158 -177 -158 -203 0 -14 44 -55 148 -136 81
-64 155 -116 164 -116 9 0 24 8 34 18 36 35 134 175 140 198 11 42 -5 91 -37
118 -38 32 -67 40 -101 27 -24 -9 -26 -8 -32 23 -13 67 -98 105 -158 71z m72
-95 c11 -11 20 -24 20 -28 0 -12 -56 -98 -69 -106 -6 -4 -26 5 -45 20 -39 32
-38 39 18 98 38 41 48 44 76 16z m155 -100 c11 -12 15 -28 12 -42 -7 -25 -65
-108 -76 -108 -4 0 -26 14 -50 31 l-42 32 23 26 c62 71 73 81 93 81 12 0 30
-9 40 -20z"/>
<path d="M4138 3490 c-103 -52 -159 -86 -163 -99 -4 -13 16 -63 60 -151 56
-112 69 -131 87 -128 45 7 44 31 -4 136 l-46 99 45 22 c24 12 47 19 51 17 4
-2 25 -40 46 -85 40 -80 54 -95 80 -85 29 11 26 39 -14 122 -22 46 -40 86 -40
88 0 2 17 12 38 23 l39 20 44 -91 c46 -94 70 -118 95 -97 23 19 17 44 -46 169
-55 110 -62 120 -88 119 -15 0 -98 -36 -184 -79z"/>
<path d="M2356 3550 c-236 -38 -475 -163 -635 -335 -68 -73 -159 -206 -191
-278 l-20 -44 -107 -6 c-225 -11 -309 -84 -290 -253 6 -57 44 -114 101 -153
l45 -31 -16 -37 c-22 -53 -14 -155 17 -217 33 -65 117 -140 185 -165 31 -12
62 -21 69 -21 8 0 20 -15 27 -32 7 -18 40 -73 72 -121 33 -49 58 -90 56 -91
-2 -2 -69 -16 -149 -31 -171 -33 -187 -39 -145 -55 23 -9 68 -8 194 4 l164 16
66 -57 c436 -373 1083 -353 1481 45 42 43 90 94 106 114 l29 38 348 29 c191
15 350 31 354 35 24 24 -427 156 -535 156 l-50 0 29 90 c16 50 29 96 29 104 0
11 10 13 39 9 39 -5 62 10 44 28 -6 6 -97 32 -204 59 -132 34 -217 61 -265 86
-49 25 -79 35 -95 31 -34 -9 -88 -68 -239 -261 -112 -144 -131 -174 -125 -195
12 -54 12 -55 -35 -63 -25 -4 -178 -30 -340 -58 -162 -28 -303 -53 -312 -56
-26 -8 -11 24 27 57 28 25 51 66 69 122 3 10 10 16 15 13 5 -3 68 14 140 39
72 25 142 45 155 45 32 0 85 46 103 88 41 98 -61 205 -166 173 -94 -28 -126
-155 -56 -221 14 -13 25 -26 25 -30 0 -4 -42 -19 -92 -35 -51 -15 -99 -33
-106 -38 -11 -8 -13 -2 -10 33 3 43 4 44 51 59 26 8 47 20 47 28 0 17 -8 16
-59 -2 l-42 -15 3 27 c2 22 10 29 41 36 22 6 37 15 37 24 0 15 -14 14 -72 -3
-13 -4 -19 2 -24 23 -35 158 -62 225 -105 255 -54 40 -421 79 -553 59 -42 -6
-89 -17 -104 -25 -24 -12 -32 -12 -62 0 -121 51 -164 156 -89 218 50 42 120
51 293 38 241 -19 621 -28 612 -14 -10 17 -5 15 64 -14 33 -15 63 -24 66 -21
3 2 -14 60 -37 128 -72 213 -63 341 32 439 51 53 93 70 168 70 118 0 229 -67
272 -165 53 -119 38 -357 -30 -483 -17 -31 4 -37 45 -13 l34 21 47 -36 c26
-20 77 -51 114 -70 64 -32 114 -48 399 -127 69 -19 204 -67 300 -107 190 -78
220 -88 220 -72 0 24 -57 76 -136 124 -46 28 -84 56 -84 62 0 6 -7 54 -15 106
-34 230 -128 419 -289 588 -163 170 -350 274 -576 322 -73 16 -300 21 -374 10z
m639 -187 c195 -97 360 -274 444 -477 42 -100 39 -119 -4 -28 -100 212 -257
378 -483 509 -87 51 -62 48 43 -4z m-1065 -80 c-68 -55 -180 -171 -235 -244
-62 -82 -65 -85 -65 -72 0 22 100 163 155 218 50 50 167 135 184 135 3 0 -14
-17 -39 -37z m585 -968 c40 -39 37 -98 -6 -137 -41 -39 -90 -38 -130 1 -38 39
-39 87 -3 130 22 26 33 31 70 31 34 0 51 -6 69 -25z"/>
<path d="M620 3536 c-6 -8 -10 -25 -8 -38 2 -19 29 -36 136 -89 74 -36 138
-72 143 -80 14 -23 10 -62 -11 -96 -29 -48 -65 -44 -208 22 -65 30 -126 55
-134 55 -23 0 -40 -26 -36 -56 3 -25 16 -34 131 -87 70 -32 145 -61 166 -64
76 -10 141 45 177 150 36 106 -7 162 -188 245 -122 55 -148 61 -168 38z"/>
<path d="M4401 3167 c-57 -20 -73 -52 -78 -158 -3 -52 -10 -100 -16 -106 -16
-22 -54 -15 -76 13 -32 40 -28 89 10 123 23 22 30 35 27 57 -7 64 -103 25
-128 -52 -23 -70 12 -183 71 -226 33 -25 110 -26 145 -3 38 25 54 74 54 164 0
77 12 111 41 111 17 0 49 -40 50 -62 2 -40 -2 -52 -28 -80 -42 -44 -13 -92 44
-73 65 23 81 141 30 228 -36 62 -88 84 -146 64z"/>
<path d="M812 3077 c-7 -7 -20 -51 -31 -96 -11 -46 -22 -85 -24 -88 -3 -2 -68
12 -145 32 -153 38 -182 41 -200 23 -16 -16 -15 -53 1 -67 16 -13 331 -91 369
-91 35 0 39 9 74 152 23 97 26 119 15 132 -16 19 -45 21 -59 3z"/>
<path d="M4202 2768 c-16 -16 -15 -53 1 -66 6 -5 31 -16 55 -23 l42 -12 0 -82
0 -82 -40 -18 c-51 -23 -64 -39 -56 -70 12 -46 41 -41 221 41 180 81 215 104
215 140 0 42 -33 61 -213 123 -188 64 -206 68 -225 49z m249 -148 c38 -12 69
-22 69 -24 0 -5 -132 -58 -135 -54 -8 8 -16 98 -10 98 4 0 39 -9 76 -20z"/>
<path d="M452 2753 c-79 -39 -114 -158 -73 -248 50 -112 195 -158 317 -101 60
28 89 65 104 132 13 57 6 109 -21 152 -38 63 -127 94 -149 52 -14 -27 1 -54
40 -70 32 -13 60 -55 60 -89 0 -63 -51 -101 -134 -101 -98 0 -156 39 -156 105
0 38 20 67 65 95 40 25 47 63 16 80 -25 13 -30 13 -69 -7z"/>
<path d="M1123 1962 c-204 -55 -243 -69 -243 -84 0 -10 1 -18 3 -18 1 0 117
31 257 69 192 51 256 72 258 85 5 23 -7 21 -275 -52z"/>
<path d="M1106 1884 c-142 -40 -261 -76 -264 -79 -3 -3 -1 -10 6 -17 8 -8 76
7 269 61 286 79 307 87 298 101 -10 17 -41 10 -309 -66z"/>
<path d="M1205 1831 c-224 -60 -291 -81 -293 -94 -2 -9 1 -17 6 -17 15 0 610
158 622 165 19 12 10 25 -17 24 -16 0 -158 -36 -318 -78z"/>
<path d="M896 1414 c-136 -106 -163 -134 -150 -157 15 -24 134 -174 148 -186
8 -7 24 -10 36 -6 35 11 24 51 -34 123 l-53 68 123 94 c68 52 126 103 130 112
8 26 -14 58 -40 58 -15 0 -75 -40 -160 -106z"/>
<path d="M3923 1500 c-42 -25 -83 -89 -90 -138 -7 -52 18 -99 64 -118 48 -21
81 -11 159 47 73 53 85 57 108 33 20 -19 20 -37 1 -74 -20 -40 -46 -52 -95
-44 -44 7 -70 -6 -70 -37 0 -27 39 -49 86 -49 51 0 97 30 139 89 25 35 30 53
30 98 0 50 -3 57 -37 89 -58 53 -108 48 -193 -21 -79 -63 -115 -68 -115 -13 0
44 40 79 88 77 21 -2 43 1 50 5 15 9 15 49 0 64 -19 19 -89 14 -125 -8z"/>
<path d="M1155 1234 c-84 -46 -144 -134 -145 -212 0 -104 99 -202 205 -202 59
0 112 28 162 84 93 106 77 232 -39 312 -50 35 -137 43 -183 18z m130 -78 c47
-20 69 -57 62 -106 -10 -75 -79 -142 -149 -144 -76 -2 -123 88 -84 162 20 38
68 81 102 92 16 4 30 9 32 9 1 1 18 -5 37 -13z"/>
<path d="M3697 1226 c-91 -33 -151 -109 -151 -191 1 -124 138 -252 248 -231
47 9 106 47 140 89 25 31 31 49 34 102 4 56 1 70 -22 109 -32 56 -99 113 -145
126 -46 13 -58 12 -104 -4z m94 -91 c35 -19 85 -85 94 -125 4 -18 0 -40 -9
-59 -45 -86 -140 -80 -212 15 -79 102 15 226 127 169z"/>
<path d="M3382 1008 c-7 -7 -12 -18 -12 -26 0 -22 179 -310 203 -327 18 -13
24 -13 42 -1 11 8 20 24 20 37 -1 13 -43 93 -94 177 -83 135 -97 152 -120 152
-15 0 -32 -5 -39 -12z"/>
<path d="M1493 975 c-33 -33 -35 -39 -30 -81 4 -38 14 -54 66 -109 33 -35 61
-72 61 -82 -1 -42 -37 -59 -85 -39 -41 17 -55 42 -55 95 0 66 -58 81 -78 21
-32 -92 70 -199 190 -200 56 0 100 32 118 84 17 51 3 82 -66 156 -68 72 -76
93 -44 110 15 8 29 7 55 -6 35 -16 42 -29 47 -88 4 -40 41 -53 69 -25 44 44 3
130 -83 173 -75 38 -121 35 -165 -9z"/>
<path d="M3140 883 c-99 -41 -110 -49 -110 -75 0 -35 133 -339 152 -349 14 -8
26 -6 44 6 30 19 30 21 -1 97 -32 78 -31 85 6 93 27 6 42 -1 115 -51 76 -51
87 -56 109 -46 55 25 10 96 -87 139 l-37 16 25 29 c37 45 33 101 -10 144 -46
46 -92 45 -206 -3z m138 -55 c17 -17 15 -53 -5 -70 -17 -16 -88 -48 -103 -48
-11 0 -42 81 -35 89 12 11 90 40 111 40 11 1 25 -4 32 -11z"/>
<path d="M1941 808 c-5 -13 -25 -96 -46 -185 -30 -129 -35 -166 -26 -177 15
-18 173 -56 235 -56 62 0 105 37 113 98 5 35 1 49 -16 73 l-22 29 31 26 c25
22 30 33 30 71 0 68 -32 95 -149 122 -119 27 -139 27 -150 -1z m177 -84 c28
-11 33 -18 30 -40 -4 -37 -26 -48 -79 -40 -67 10 -72 16 -59 64 10 40 12 41
43 35 18 -3 47 -12 65 -19z m-47 -155 c46 -12 63 -32 55 -64 -10 -38 -36 -47
-98 -34 -29 6 -56 14 -60 18 -4 3 -2 28 4 54 11 54 3 52 99 26z"/>
<path d="M2773 781 c-123 -24 -121 -20 -88 -198 39 -213 41 -222 70 -229 42
-10 58 12 51 71 -3 28 -9 65 -12 83 -6 32 -6 32 32 32 34 0 45 -7 104 -71 57
-61 70 -70 96 -67 23 2 30 9 32 28 3 30 -51 108 -91 129 l-26 14 35 32 c27 25
34 40 34 69 0 74 -52 127 -122 125 -18 -1 -70 -9 -115 -18z m141 -94 c8 -21 6
-31 -5 -42 -15 -15 -124 -43 -133 -34 -2 2 -7 25 -11 51 l-7 47 33 4 c19 2 52
4 74 3 34 -1 41 -5 49 -29z"/>
<path d="M2407 748 c-25 -23 -157 -333 -157 -368 0 -25 26 -43 53 -36 17 4 29
19 42 51 l17 46 80 -3 80 -3 17 -45 c15 -42 19 -45 51 -45 31 0 35 3 38 29 4
36 -111 340 -141 374 -11 12 -28 22 -38 22 -10 0 -29 -10 -42 -22z m83 -230
c0 -4 -23 -8 -51 -8 -37 0 -50 4 -46 13 2 6 15 41 28 76 l23 64 23 -68 c13
-38 23 -73 23 -77z"/>
</g>
</svg>
