<svg id="Camada_1" data-name="Camada 1" xmlns="http://www.w3.org/2000/svg" viewBox="0 0 467.08 467.08"><defs><style>.cls-1{fill:#fff;}.cls-2{fill:#008a48;}.cls-3{fill:#006831;}.cls-4{fill:#86add4;}.cls-5{fill:#009048;}.cls-6{fill:#007d3e;}.cls-7{fill:#00a753;}.cls-8{fill:#a98305;}.cls-9{fill:#ffc310;}.cls-10{fill:#daa810;}</style></defs><title>Los Barrios - colored</title><circle class="cls-1" cx="233.54" cy="233.54" r="233.49"/><path class="cls-2" d="M250,483.54C121.23,483.54,16.46,378.77,16.46,250S121.23,16.46,250,16.46,483.54,121.23,483.54,250,378.77,483.54,250,483.54Zm0-459C125.69,24.55,24.55,125.69,24.55,250S125.69,475.45,250,475.45,475.45,374.31,475.45,250,374.31,24.55,250,24.55Z" transform="translate(-16.46 -16.46)"/><path class="cls-2" d="M66.78,224.3a11.31,11.31,0,0,1,4.31,1.14A16,16,0,0,1,79,234.27,19.52,19.52,0,0,1,80.15,242a27.22,27.22,0,0,1-.85,6,16.35,16.35,0,0,1-5.8,8.83A20.78,20.78,0,0,1,69,259.53a23.23,23.23,0,0,1-5.3,1.58,28.56,28.56,0,0,1-5.93.37,26.17,26.17,0,0,1-9-1.8A19.61,19.61,0,0,1,42,255.2a18.6,18.6,0,0,1-4.11-6.61,21,21,0,0,1-1.2-7.93,19.67,19.67,0,0,1,2.36-9,16.58,16.58,0,0,1,5.25-5.93A9.9,9.9,0,0,1,50,223.81a3.67,3.67,0,0,1,2.54,1.12,3.27,3.27,0,0,1,1,2.54,3.47,3.47,0,0,1-.86,2.42A11,11,0,0,1,50,231.61a12.84,12.84,0,0,0-4.82,3.75,9.59,9.59,0,0,0-1.75,5.48,10.06,10.06,0,0,0,3.69,8.5q3.87,3.25,11.2,3.52a21,21,0,0,0,8.21-1.08,10.27,10.27,0,0,0,5-3.72,10.83,10.83,0,0,0,1.82-5.84,10.48,10.48,0,0,0-1.6-6.28,11.06,11.06,0,0,0-5.21-4,9.1,9.1,0,0,1-2.66-1.44,3.08,3.08,0,0,1-.95-2.62,3.61,3.61,0,0,1,1.16-2.57A3.51,3.51,0,0,1,66.78,224.3Z" transform="translate(-16.46 -16.46)"/><path class="cls-2" d="M46.54,204.51l29.71,7.31,4.13-16.77a4.51,4.51,0,0,1,1.73-2.84,3.28,3.28,0,0,1,2.71-.47A3.21,3.21,0,0,1,87,193.4a4.69,4.69,0,0,1,.17,3.32l-4.91,20a5.45,5.45,0,0,1-2.15,3.59,5.51,5.51,0,0,1-4.16.23L44.5,212.78A5.61,5.61,0,0,1,41,210.73a3.93,3.93,0,0,1-.52-3.28,4,4,0,0,1,2-2.71A5.5,5.5,0,0,1,46.54,204.51Z" transform="translate(-16.46 -16.46)"/><path class="cls-2" d="M71.83,186.67l-18.34-8.5a5.62,5.62,0,0,1-3-2.69,3.89,3.89,0,0,1,.11-3.31,4,4,0,0,1,2.5-2.31,5.61,5.61,0,0,1,4,.58l18.76,8.7a18.92,18.92,0,0,0,5.67,1.77,6.83,6.83,0,0,0,4.51-1,10.19,10.19,0,0,0,3.55-4.55c1.4-3,1.59-5.52.56-7.51S87,164.1,83.7,162.59l-18.91-8.78a5.65,5.65,0,0,1-3-2.67,3.92,3.92,0,0,1,.13-3.32,4.06,4.06,0,0,1,2.47-2.29,5.54,5.54,0,0,1,4,.56l18.35,8.51a30.15,30.15,0,0,1,7.06,4.33,12.79,12.79,0,0,1,3.73,5.73,14.12,14.12,0,0,1,.56,6.14A23.45,23.45,0,0,1,96,177.67a29.34,29.34,0,0,1-4.46,7.13,13.31,13.31,0,0,1-5.34,3.81,13,13,0,0,1-6.46.57A28.18,28.18,0,0,1,71.83,186.67Z" transform="translate(-16.46 -16.46)"/><path class="cls-2" d="M116,143.85,108.15,154a5.29,5.29,0,0,1-3.43,2.36,5.55,5.55,0,0,1-3.86-1.5l-25-19.4a5.5,5.5,0,0,1-2.4-3.42A5.38,5.38,0,0,1,75,128.18l8.37-10.75a31.38,31.38,0,0,1,3.5-3.9,11.38,11.38,0,0,1,3.56-2.24,10.52,10.52,0,0,1,3.4-.7,10.07,10.07,0,0,1,3.45.47,10.23,10.23,0,0,1,3.12,1.66q5,3.89,3.41,10.66,7.19-4.93,13.2-.24a11.57,11.57,0,0,1,3.9,5.33,10.79,10.79,0,0,1,.3,6.41,17.13,17.13,0,0,1-1.82,4.18A45.21,45.21,0,0,1,116,143.85Zm-34-14.39,8.58,6.67L95.44,130A15.61,15.61,0,0,0,98,125.72a4.73,4.73,0,0,0-.18-3.5A5.29,5.29,0,0,0,96.12,120c-1.68-1.31-3.25-1.57-4.73-.81A17.26,17.26,0,0,0,86.32,124Zm18.84,3.43-5.44,7,9.69,7.54,5.62-7.22q5.3-6.81.39-10.64a5.09,5.09,0,0,0-5-1.07Q103.65,129.38,100.91,132.89Z" transform="translate(-16.46 -16.46)"/><path class="cls-2" d="M138.43,76.3,131,81.83l18.2,24.54a5.6,5.6,0,0,1,1.38,3.84,3.94,3.94,0,0,1-1.68,2.84,4,4,0,0,1-3.24.8,5.58,5.58,0,0,1-3.28-2.43L124.15,86.89l-7.47,5.53a4.64,4.64,0,0,1-3.17,1.16,3.57,3.57,0,0,1-3-4.14,4.78,4.78,0,0,1,2-2.66l21.74-16.13a4.84,4.84,0,0,1,3.22-1.17,3.32,3.32,0,0,1,2.39,1.41,3.25,3.25,0,0,1,.63,2.69A4.8,4.8,0,0,1,138.43,76.3Z" transform="translate(-16.46 -16.46)"/><path class="cls-2" d="M173.48,57.77,156.13,66l4.41,9.34,16-7.55a4.26,4.26,0,0,1,3-.45A3,3,0,0,1,181.38,69a3.11,3.11,0,0,1,.14,2.51,4.08,4.08,0,0,1-2.26,2.07l-16,7.55,5.11,10.81,17.94-8.48a4.35,4.35,0,0,1,3.13-.45,3.2,3.2,0,0,1,2,1.81,3.12,3.12,0,0,1,.12,2.63,4.35,4.35,0,0,1-2.34,2.13L168.3,99.45A4.46,4.46,0,0,1,161.36,97L147.85,68.38a7,7,0,0,1-.78-2.94,3.35,3.35,0,0,1,.82-2.26,7.22,7.22,0,0,1,2.45-1.75l20.33-9.6a4.39,4.39,0,0,1,3.12-.48,3.36,3.36,0,0,1,2,4.31A4.39,4.39,0,0,1,173.48,57.77Z" transform="translate(-16.46 -16.46)"/><path class="cls-2" d="M197.58,47.89,219,68.46l-5.5-24.4a5.46,5.46,0,0,1,.22-3.79,3.51,3.51,0,0,1,2.49-1.81,3.62,3.62,0,0,1,3.09.55,5.46,5.46,0,0,1,1.84,3.33l7.27,32.26q1.22,5.4-3.26,6.41a6.06,6.06,0,0,1-2.09.13,5.2,5.2,0,0,1-1.91-.64,10.41,10.41,0,0,1-1.82-1.31c-.59-.52-1.18-1.06-1.78-1.61l-21-20.39,5.41,24a5.26,5.26,0,0,1-.29,3.8,3.73,3.73,0,0,1-2.53,1.83,3.68,3.68,0,0,1-3.1-.58,5.36,5.36,0,0,1-1.86-3.3l-7.13-31.65a9.11,9.11,0,0,1-.26-3.26,4.6,4.6,0,0,1,1.3-2.45,4.91,4.91,0,0,1,2.48-1.4,4.69,4.69,0,0,1,2-.07,4.83,4.83,0,0,1,1.62.67,9.7,9.7,0,0,1,1.59,1.32C196.38,46.69,197,47.28,197.58,47.89Z" transform="translate(-16.46 -16.46)"/><path class="cls-2" d="M235,75.1l-2-33.06a5.62,5.62,0,0,1,.94-3.94,4,4,0,0,1,3-1.47A4,4,0,0,1,240,37.72a5.51,5.51,0,0,1,1.43,3.8l2,33.07a5.6,5.6,0,0,1-1,4,4,4,0,0,1-3,1.48,3.93,3.93,0,0,1-3.1-1.12A5.55,5.55,0,0,1,235,75.1Z" transform="translate(-16.46 -16.46)"/><path class="cls-2" d="M282.33,68.42a12.29,12.29,0,0,1-2.53,6.67,13.07,13.07,0,0,1-6.12,4.27,21.73,21.73,0,0,1-9.09,1,20.22,20.22,0,0,1-10-3.2,13.7,13.7,0,0,1-4.27-4.89A10.37,10.37,0,0,1,249,66.62a3.73,3.73,0,0,1,4.12-3.43,3.24,3.24,0,0,1,2.2,1,6.68,6.68,0,0,1,1.37,2.67,17.23,17.23,0,0,0,1.45,3.49,7.17,7.17,0,0,0,2.43,2.44,9.89,9.89,0,0,0,4.36,1.24,10.05,10.05,0,0,0,6.28-1.25,5.31,5.31,0,0,0,2.72-4.19,4.6,4.6,0,0,0-1-3.49,8.2,8.2,0,0,0-3.12-2.26A56,56,0,0,0,264.5,61a40.1,40.1,0,0,1-7.35-3.1,12.44,12.44,0,0,1-4.51-4.26,10.12,10.12,0,0,1-1.28-6.23,10.6,10.6,0,0,1,2.4-6,11.94,11.94,0,0,1,5.81-3.67,22.46,22.46,0,0,1,8.52-.74,20.84,20.84,0,0,1,6.59,1.51,14.3,14.3,0,0,1,4.46,2.94A10.73,10.73,0,0,1,281.58,45a7.54,7.54,0,0,1,.57,3.48,4,4,0,0,1-1.3,2.64,3.41,3.41,0,0,1-2.77,1,3.06,3.06,0,0,1-2.15-.92,9.63,9.63,0,0,1-1.45-2.52,10.8,10.8,0,0,0-2.43-3.93c-1-1-2.67-1.56-5-1.76a9,9,0,0,0-5.42,1,4.21,4.21,0,0,0-2.3,3.31,3.57,3.57,0,0,0,.5,2.23,5.93,5.93,0,0,0,1.76,1.73,13.12,13.12,0,0,0,2.34,1.23c.8.31,2.12.79,4,1.42a63.7,63.7,0,0,1,6.26,2.37,19.64,19.64,0,0,1,4.69,2.83A10.1,10.1,0,0,1,281.65,63,11.58,11.58,0,0,1,282.33,68.42Z" transform="translate(-16.46 -16.46)"/><path class="cls-2" d="M315.36,46.83l10.36,4a30.29,30.29,0,0,1,6.64,3.42,13.65,13.65,0,0,1,4.16,4.83q4.11,7.6,0,18.31a33.71,33.71,0,0,1-3.1,6.22,20.69,20.69,0,0,1-3.92,4.52A17.26,17.26,0,0,1,324.58,91a14.63,14.63,0,0,1-4.33.95,16.8,16.8,0,0,1-4.49-.35,33.26,33.26,0,0,1-5-1.52l-10.36-4a6.88,6.88,0,0,1-3-1.91,3.26,3.26,0,0,1-.72-2.4,12.78,12.78,0,0,1,.85-3.22l11.08-28.77a4.48,4.48,0,0,1,6.75-3Zm.65,7.48L305.76,80.94l6,2.32c1.32.51,2.37.87,3.15,1.09a11.1,11.1,0,0,0,2.53.36,6.91,6.91,0,0,0,2.56-.4q5.28-1.84,8.46-10.08,2.24-5.81,1.59-9.38a8.39,8.39,0,0,0-2.9-5.34,22.57,22.57,0,0,0-5.91-3.18Z" transform="translate(-16.46 -16.46)"/><path class="cls-2" d="M374.06,84.5,358,73.94l-5.69,8.61,14.75,9.73a4.2,4.2,0,0,1,1.95,2.34,3,3,0,0,1-.47,2.45,3.07,3.07,0,0,1-2.08,1.43,4.07,4.07,0,0,1-2.94-.86l-14.74-9.72-6.59,10,16.57,10.93a4.37,4.37,0,0,1,2,2.44,3.21,3.21,0,0,1-.52,2.63,3.17,3.17,0,0,1-2.18,1.47,4.4,4.4,0,0,1-3-.89l-19.32-12.75a5.44,5.44,0,0,1-2.66-3.23,5.49,5.49,0,0,1,1.18-4l17.4-26.38a7.1,7.1,0,0,1,2.11-2.2,3.3,3.3,0,0,1,2.35-.47,7.06,7.06,0,0,1,2.78,1.19L377.67,79a4.38,4.38,0,0,1,2,2.42,3.36,3.36,0,0,1-2.62,4A4.34,4.34,0,0,1,374.06,84.5Z" transform="translate(-16.46 -16.46)"/><path class="cls-2" d="M382.94,132.61l16.35-22.26-22.37,18.49a5.31,5.31,0,0,1-3.47,1.47,3.94,3.94,0,0,1-3.62-4.35,5.21,5.21,0,0,1,2.1-3.15l25.64-21.2q2.13-1.76,3.78-1.26a6.93,6.93,0,0,1,3.21,2.37l1.68,2a10.19,10.19,0,0,1,1.87,2.93,3,3,0,0,1-.18,2.22,24.22,24.22,0,0,1-2.06,3.22L392,132.51l21.64-10a24.58,24.58,0,0,1,3.56-1.41,2.9,2.9,0,0,1,2.21.24,9.89,9.89,0,0,1,2.53,2.39l1.68,2a6.86,6.86,0,0,1,1.73,3.6c.11,1.14-.54,2.3-1.95,3.47l-25.64,21.19a5.28,5.28,0,0,1-3.47,1.48,3.68,3.68,0,0,1-2.77-1.46,3.56,3.56,0,0,1-.84-2.91,5.19,5.19,0,0,1,2.09-3.14l22.37-18.49-24.94,11.87c-1.62.77-2.83,1.3-3.64,1.61a5.31,5.31,0,0,1-2.69.23,4.5,4.5,0,0,1-2.75-1.75,4.7,4.7,0,0,1-1.11-2.35,4.75,4.75,0,0,1,.25-2.29,9.05,9.05,0,0,1,1.14-2.11Z" transform="translate(-16.46 -16.46)"/><path class="cls-2" d="M440.46,169.55l-8.53-17.19L422.68,157l7.86,15.82a4.2,4.2,0,0,1,.51,3,3,3,0,0,1-1.64,1.89,3.11,3.11,0,0,1-2.52.19,4.14,4.14,0,0,1-2.11-2.22l-7.85-15.83-10.71,5.32L415,182.9a4.39,4.39,0,0,1,.51,3.12,3.23,3.23,0,0,1-1.77,2,3.14,3.14,0,0,1-2.62.16,4.33,4.33,0,0,1-2.18-2.29l-10.29-20.74A5.46,5.46,0,0,1,398,161a5.53,5.53,0,0,1,3-2.86l28.31-14.05a7,7,0,0,1,2.93-.84,3.38,3.38,0,0,1,2.28.77,7.22,7.22,0,0,1,1.79,2.42l10,20.15a4.35,4.35,0,0,1,.53,3.11,3.09,3.09,0,0,1-1.68,1.94,3.06,3.06,0,0,1-2.58.17A4.33,4.33,0,0,1,440.46,169.55Z" transform="translate(-16.46 -16.46)"/><path class="cls-2" d="M431.68,219.56a12.34,12.34,0,0,1-7.13-.17,13,13,0,0,1-6.06-4.35,21.57,21.57,0,0,1-3.94-8.25,20.14,20.14,0,0,1-.32-10.53,13.54,13.54,0,0,1,3.19-5.65,10.17,10.17,0,0,1,4.86-3.13,3.73,3.73,0,0,1,4.6,2.74,3.25,3.25,0,0,1-.26,2.42,6.66,6.66,0,0,1-2.07,2.19,17.37,17.37,0,0,0-2.8,2.53,7.07,7.07,0,0,0-1.49,3.1,9.73,9.73,0,0,0,.28,4.52,10.05,10.05,0,0,0,3.27,5.51,5.31,5.31,0,0,0,4.86,1.17,4.65,4.65,0,0,0,3-2.09,8.19,8.19,0,0,0,1.09-3.7c.1-1.42.12-3.29,0-5.6a39.74,39.74,0,0,1,.48-8,12.24,12.24,0,0,1,2.51-5.67,10.11,10.11,0,0,1,5.45-3.28,10.54,10.54,0,0,1,6.44.27,12,12,0,0,1,5.4,4.25,22.33,22.33,0,0,1,3.53,7.79,20.78,20.78,0,0,1,.77,6.72,14.14,14.14,0,0,1-1.28,5.19,10.67,10.67,0,0,1-2.54,3.48,7.73,7.73,0,0,1-3.09,1.7,4.05,4.05,0,0,1-2.92-.35,3.45,3.45,0,0,1-1.86-2.29,3.12,3.12,0,0,1,.15-2.33,9.57,9.57,0,0,1,1.9-2.2A10.88,10.88,0,0,0,450.6,202q.88-1.89,0-5.33a8.91,8.91,0,0,0-2.74-4.78,4.2,4.2,0,0,0-3.89-1.07A3.49,3.49,0,0,0,442,192a5.7,5.7,0,0,0-1,2.23,12.75,12.75,0,0,0-.38,2.62c0,.85,0,2.26,0,4.21a65.25,65.25,0,0,1-.15,6.7,19.76,19.76,0,0,1-1.11,5.36,10.17,10.17,0,0,1-2.71,4A11.68,11.68,0,0,1,431.68,219.56Z" transform="translate(-16.46 -16.46)"/><path class="cls-2" d="M425.78,252.22,431,250l-.76-17.08-5.47-1.77a18.67,18.67,0,0,1-4.34-1.81,3.23,3.23,0,0,1-1.23-2.68,4,4,0,0,1,1.05-2.88,3.58,3.58,0,0,1,2.61-1.35,5.93,5.93,0,0,1,1.79.2c.62.17,1.48.45,2.59.84L455,233l2.87,1a14.53,14.53,0,0,1,2.8,1.26,5.61,5.61,0,0,1,1.85,1.84,5.9,5.9,0,0,1,.8,2.91,6,6,0,0,1-.54,3,5.69,5.69,0,0,1-1.65,2,12.09,12.09,0,0,1-2.22,1.33c-.8.37-1.87.85-3.2,1.42l-26.62,12.17a13.64,13.64,0,0,1-4.44,1.49,3.7,3.7,0,0,1-2.73-1.1,4,4,0,0,1-1.35-2.88,3.8,3.8,0,0,1,.28-1.74,3.56,3.56,0,0,1,.92-1.24,8.65,8.65,0,0,1,1.85-1.13C424.41,252.87,425.15,252.51,425.78,252.22Zm10.92-17.37.56,12.55,17.05-7.09Z" transform="translate(-16.46 -16.46)"/><path class="cls-2" d="M106.93,356.26l-23.3,18,10.16,13.15a4.36,4.36,0,0,1,1.1,3,3.16,3.16,0,0,1-1.27,2.33,3.06,3.06,0,0,1-2.56.64,4.47,4.47,0,0,1-2.6-1.85l-12.1-15.66a5.23,5.23,0,0,1-1.42-3.78,5.31,5.31,0,0,1,2.32-3.27l24.66-19.06a5.39,5.39,0,0,1,3.63-1.39,3.75,3.75,0,0,1,2.78,1.56,3.93,3.93,0,0,1,.86,3.12A5.29,5.29,0,0,1,106.93,356.26Z" transform="translate(-16.46 -16.46)"/><path class="cls-2" d="M136.07,380.78a21.61,21.61,0,0,1,6.42,9.07,16.51,16.51,0,0,1,.32,10,24.8,24.8,0,0,1-5.57,9.83,27.15,27.15,0,0,1-6.6,5.55,18.5,18.5,0,0,1-7.26,2.47,16.52,16.52,0,0,1-7.52-.9,24.56,24.56,0,0,1-12.71-11.26,16.91,16.91,0,0,1-1.84-7.38,18.65,18.65,0,0,1,1.59-7.54,27.36,27.36,0,0,1,4.64-7.21,26.29,26.29,0,0,1,6.67-5.53,18.28,18.28,0,0,1,7.29-2.4,16.74,16.74,0,0,1,7.4.95A22.33,22.33,0,0,1,136.07,380.78Zm-5,23.32a19,19,0,0,0,4-6.73,10.65,10.65,0,0,0,.18-6.4,11.85,11.85,0,0,0-7.49-7.61,10,10,0,0,0-4.48-.36,12.82,12.82,0,0,0-4.76,1.82,20.34,20.34,0,0,0-4.73,4.05,21.05,21.05,0,0,0-3.48,5.25,13,13,0,0,0-1.22,5.1,10.4,10.4,0,0,0,.92,4.47,11,11,0,0,0,2.78,3.66,11.14,11.14,0,0,0,5.38,2.65,10.88,10.88,0,0,0,6.36-.87A18.73,18.73,0,0,0,131,404.1Z" transform="translate(-16.46 -16.46)"/><path class="cls-2" d="M166.63,435.57a11.88,11.88,0,0,1-4.86,4.85,12.63,12.63,0,0,1-7.06,1.32,21,21,0,0,1-8.36-2.75,19.58,19.58,0,0,1-7.54-6.79,13.07,13.07,0,0,1-1.8-6,9.73,9.73,0,0,1,1.06-5.46,3.49,3.49,0,0,1,2.14-1.73,3.53,3.53,0,0,1,2.82.35,3.14,3.14,0,0,1,1.52,1.79,6.55,6.55,0,0,1,.14,2.89,17,17,0,0,0-.11,3.64,6.78,6.78,0,0,0,1.17,3.09,9.41,9.41,0,0,0,3.33,2.82,9.65,9.65,0,0,0,6,1.39,5.09,5.09,0,0,0,4-2.59,4.55,4.55,0,0,0,.52-3.46,8,8,0,0,0-1.85-3.22,53.14,53.14,0,0,0-3.86-3.76,38.18,38.18,0,0,1-5.22-5.63,11.8,11.8,0,0,1-2.27-5.53,9.64,9.64,0,0,1,1.35-6,10,10,0,0,1,4.47-4.3,11.56,11.56,0,0,1,6.55-.93,21.74,21.74,0,0,1,7.77,2.73,20,20,0,0,1,5.18,3.94,13.31,13.31,0,0,1,2.75,4.34,10.09,10.09,0,0,1,.73,4.08,7.41,7.41,0,0,1-.87,3.28,3.87,3.87,0,0,1-2.19,1.8,3.29,3.29,0,0,1-2.82-.23,3,3,0,0,1-1.53-1.66,9.34,9.34,0,0,1-.27-2.78,10.49,10.49,0,0,0-.57-4.41q-.74-1.87-3.72-3.54a8.62,8.62,0,0,0-5.16-1.27,4,4,0,0,0-3.33,2,3.39,3.39,0,0,0-.44,2.15,5.55,5.55,0,0,0,.86,2.21,12.21,12.21,0,0,0,1.56,2c.58.6,1.55,1.54,2.92,2.82a61.18,61.18,0,0,1,4.56,4.56,18.74,18.74,0,0,1,3,4.34,9.63,9.63,0,0,1,1,4.53A11.21,11.21,0,0,1,166.63,435.57Z" transform="translate(-16.46 -16.46)"/><path class="cls-2" d="M202.73,459.76l-12-2.8a5.19,5.19,0,0,1-3.45-2,5.39,5.39,0,0,1-.24-4l6.89-29.63a5.29,5.29,0,0,1,2-3.48,5.2,5.2,0,0,1,4-.29l12.77,3a30,30,0,0,1,4.81,1.49,10.72,10.72,0,0,1,3.4,2.2,10.18,10.18,0,0,1,2,2.69,9.41,9.41,0,0,1,1,3.21,9.74,9.74,0,0,1-.19,3.39q-1.38,5.92-7.93,7.28,7.19,4.29,5.53,11.44a11.21,11.21,0,0,1-3.08,5.56,10.4,10.4,0,0,1-5.49,2.84,16.16,16.16,0,0,1-4.38.1A41.09,41.09,0,0,1,202.73,459.76Zm3.48-17.64-8.31-1.93-2.67,11.5,8.57,2q8.1,1.89,9.45-3.95a4.88,4.88,0,0,0-1.09-4.82Q210.38,443.09,206.21,442.12Zm-4.6-17.85-2.37,10.19,7.31,1.7a14.7,14.7,0,0,0,4.74.51,4.53,4.53,0,0,0,3-1.57,5,5,0,0,0,1.26-2.37q.69-3-1.2-4.46a16.79,16.79,0,0,0-6.25-2.49Z" transform="translate(-16.46 -16.46)"/><path class="cls-2" d="M254.26,460.51l-1.86-5.11L236,455.16l-2,5.16a18.23,18.23,0,0,1-2,4.07,3.08,3.08,0,0,1-2.64,1,3.82,3.82,0,0,1-2.72-1.17,3.49,3.49,0,0,1-1.15-2.58,5.81,5.81,0,0,1,.3-1.71c.2-.59.51-1.4.95-2.45l10.74-26.12c.31-.75.68-1.65,1.1-2.7a14.7,14.7,0,0,1,1.37-2.62,5.48,5.48,0,0,1,1.87-1.67,6.6,6.6,0,0,1,5.69.09,5.32,5.32,0,0,1,1.82,1.7,11.32,11.32,0,0,1,1.16,2.21c.31.78.7,1.83,1.18,3.15l10.18,26.27a12.89,12.89,0,0,1,1.18,4.35,3.57,3.57,0,0,1-1.21,2.56,3.84,3.84,0,0,1-2.85,1.13,3.65,3.65,0,0,1-1.65-.37,3.39,3.39,0,0,1-1.14-1,8.34,8.34,0,0,1-1-1.84C254.8,461.87,254.5,461.14,254.26,460.51ZM238.19,449l12.09.18-5.85-16.78Z" transform="translate(-16.46 -16.46)"/><path class="cls-2" d="M281,445.35l-2.82.52,2.36,12.79a5.37,5.37,0,0,1-.43,3.92,3.86,3.86,0,0,1-2.68,1.74,3.8,3.8,0,0,1-3.22-.7,5.63,5.63,0,0,1-1.73-3.47l-5.65-30.62a4.3,4.3,0,0,1,4-5.85L284,421.26a38.68,38.68,0,0,1,4.68-.63,12,12,0,0,1,3.65.3,10.2,10.2,0,0,1,6.54,4.64,11.53,11.53,0,0,1,1.51,4,10.16,10.16,0,0,1-1.2,7.57q-2,3.12-6.92,5.18a15.17,15.17,0,0,1,4.72,2.61A34.49,34.49,0,0,1,301.3,449a36.75,36.75,0,0,1,3.23,4.09,9.33,9.33,0,0,1,1.37,2.63,2.94,2.94,0,0,1-.22,1.65,3.63,3.63,0,0,1-1.14,1.48,4.38,4.38,0,0,1-1.93.81,4,4,0,0,1-2.4-.21,6.17,6.17,0,0,1-1.88-1.32q-.85-.86-2.34-2.55l-4.22-4.78a30.53,30.53,0,0,0-3.94-3.93,7.78,7.78,0,0,0-3.17-1.6A9.76,9.76,0,0,0,281,445.35Zm1.53-17.57-7.44,1.37,2,10.94,7.22-1.33a21.16,21.16,0,0,0,4.8-1.4,5.86,5.86,0,0,0,2.71-2.27,5,5,0,0,0,.43-3.52,5.12,5.12,0,0,0-4.06-4.22A17.26,17.26,0,0,0,282.52,427.78Z" transform="translate(-16.46 -16.46)"/><path class="cls-2" d="M321.16,434.47l-2.64,1.11,5,12a5.44,5.44,0,0,1,.42,3.93,3.87,3.87,0,0,1-2.26,2.26,3.72,3.72,0,0,1-3.29,0,5.59,5.59,0,0,1-2.43-3L304,422a4.3,4.3,0,0,1,2.69-6.57l12.29-5.15a40.58,40.58,0,0,1,4.45-1.61,12,12,0,0,1,3.62-.49,10.25,10.25,0,0,1,4,.81,10,10,0,0,1,3.38,2.34,11.59,11.59,0,0,1,2.32,3.56,10.11,10.11,0,0,1,.44,7.66q-1.31,3.48-5.66,6.53a15,15,0,0,1,5.17,1.55,34.46,34.46,0,0,1,5.13,3.07,35.22,35.22,0,0,1,4,3.31,9,9,0,0,1,1.9,2.28,2.86,2.86,0,0,1,.14,1.66,3.63,3.63,0,0,1-.8,1.68,4.45,4.45,0,0,1-1.71,1.21,3.93,3.93,0,0,1-2.39.3,6.23,6.23,0,0,1-2.12-.89c-.68-.44-1.62-1.1-2.83-2l-5.14-3.77a29.51,29.51,0,0,0-4.69-3,7.81,7.81,0,0,0-3.44-.89A9.69,9.69,0,0,0,321.16,434.47ZM318.92,417l-7,2.92,4.3,10.26,6.78-2.84a20.39,20.39,0,0,0,4.38-2.39,5.81,5.81,0,0,0,2.17-2.79,5.06,5.06,0,0,0-.33-3.53,5.11,5.11,0,0,0-4.87-3.26A17.16,17.16,0,0,0,318.92,417Z" transform="translate(-16.46 -16.46)"/><path class="cls-2" d="M355.42,432.28l-16.64-27.2a5.34,5.34,0,0,1-1-3.77,3.78,3.78,0,0,1,1.84-2.59,3.93,3.93,0,0,1,3.2-.51,5.29,5.29,0,0,1,2.93,2.59L362.41,428a5.4,5.4,0,0,1,1,3.8,3.84,3.84,0,0,1-1.91,2.62,3.73,3.73,0,0,1-3.14.45A5.37,5.37,0,0,1,355.42,432.28Z" transform="translate(-16.46 -16.46)"/><path class="cls-2" d="M362.19,382.32A21.65,21.65,0,0,1,372,377.2a16.59,16.59,0,0,1,9.92,1.05,24.68,24.68,0,0,1,9,6.86,27,27,0,0,1,4.6,7.3,18.37,18.37,0,0,1,1.45,7.52,16.72,16.72,0,0,1-1.92,7.34,24.55,24.55,0,0,1-12.89,11,16.8,16.8,0,0,1-7.57.81,18.36,18.36,0,0,1-7.25-2.6,27.35,27.35,0,0,1-6.5-5.59,26.26,26.26,0,0,1-4.57-7.36A18.35,18.35,0,0,1,354.9,396a16.74,16.74,0,0,1,2-7.2A22,22,0,0,1,362.19,382.32Zm22.4,8.17a19,19,0,0,0-6.11-4.9,10.76,10.76,0,0,0-6.32-1.06,11.3,11.3,0,0,0-5.72,2.72,10.93,10.93,0,0,0-2.84,3.67,10.09,10.09,0,0,0-1,4.38,12.82,12.82,0,0,0,1.15,5,20.61,20.61,0,0,0,3.37,5.24,21,21,0,0,0,4.72,4.16,12.74,12.74,0,0,0,4.88,1.9,10.37,10.37,0,0,0,4.56-.29,11.57,11.57,0,0,0,7.37-7.22,11,11,0,0,0,0-6.42A18.8,18.8,0,0,0,384.59,390.49Z" transform="translate(-16.46 -16.46)"/><path class="cls-2" d="M420.64,359.61a11.8,11.8,0,0,1,4.13,5.48,12.53,12.53,0,0,1,.33,7.17,20.64,20.64,0,0,1-3.88,7.9,19.41,19.41,0,0,1-7.75,6.53,13,13,0,0,1-6.17,1,9.83,9.83,0,0,1-5.26-1.8,3.58,3.58,0,0,1-.68-5.11,3.09,3.09,0,0,1,2-1.25,6.5,6.5,0,0,1,2.88.25,15.94,15.94,0,0,0,3.59.61,6.71,6.71,0,0,0,3.23-.73,9.22,9.22,0,0,0,3.24-2.91,9.57,9.57,0,0,0,2.21-5.75,5.09,5.09,0,0,0-2-4.36,4.47,4.47,0,0,0-3.35-1,8,8,0,0,0-3.45,1.38,53.49,53.49,0,0,0-4.25,3.31,38.59,38.59,0,0,1-6.3,4.39,11.77,11.77,0,0,1-5.79,1.48,9.65,9.65,0,0,1-5.72-2.15,10.07,10.07,0,0,1-3.64-5,11.42,11.42,0,0,1,0-6.61,21.51,21.51,0,0,1,3.77-7.32,20.16,20.16,0,0,1,4.61-4.59,13.64,13.64,0,0,1,4.68-2.12,10.2,10.2,0,0,1,4.15-.16,7.35,7.35,0,0,1,3.12,1.31,3.88,3.88,0,0,1,1.48,2.42,3.28,3.28,0,0,1-.61,2.76,3,3,0,0,1-1.85,1.29,9.65,9.65,0,0,1-2.8-.12,10.61,10.61,0,0,0-4.45,0q-1.95.46-4,3.2a8.57,8.57,0,0,0-2,4.93,4.06,4.06,0,0,0,1.5,3.57,3.38,3.38,0,0,0,2.08.73,5.53,5.53,0,0,0,2.31-.54,12.4,12.4,0,0,0,2.2-1.27c.67-.49,1.74-1.32,3.2-2.5a61.66,61.66,0,0,1,5.14-3.89,19.08,19.08,0,0,1,4.72-2.36,9.61,9.61,0,0,1,4.61-.32A11.23,11.23,0,0,1,420.64,359.61Z" transform="translate(-16.46 -16.46)"/><path class="cls-3" d="M251.7,362.05a109.71,109.71,0,0,0,16.82-1.3c-25.71-4.85-50.72-9.54-71.45-13.39A108.32,108.32,0,0,0,251.7,362.05Z" transform="translate(-16.46 -16.46)"/><path class="cls-4" d="M296.09,349.33l5.48.65.17-.09Z" transform="translate(-16.46 -16.46)"/><path class="cls-5" d="M176.7,332.09c1.11,1.05,2.23,2.07,3.38,3.08s2.52,2.15,3.82,3.19c5.58.52,11.59,1.1,18,1.71,26.81,2.22,60.83,5.35,94.23,9.26l5.65.56a109.14,109.14,0,0,0,22.05-15.13c.32-.28.64-.56.95-.85C271.73,331.47,211.24,331.68,176.7,332.09Z" transform="translate(-16.46 -16.46)"/><path class="cls-6" d="M296.09,349.33c-33.4-3.91-106.61-10.45-112.19-11l.38.3h0a108.61,108.61,0,0,0,12.79,8.7c20.73,3.85,45.74,8.54,71.45,13.39A108.16,108.16,0,0,0,301.57,350Z" transform="translate(-16.46 -16.46)"/><path class="cls-1" d="M131.48,254.23a19.44,19.44,0,0,1,3.1-3,24.68,24.68,0,0,1,3.63-2.34,25.31,25.31,0,0,1,4-1.71,26.62,26.62,0,0,1,4.26-1,24.58,24.58,0,0,1,8.68.35,25.43,25.43,0,0,1,7.94,3.27,45.82,45.82,0,0,0-8.16-2,30.15,30.15,0,0,0-4.13-.27,24.62,24.62,0,0,0-4.11.28,30.72,30.72,0,0,0-7.93,2.22A36.3,36.3,0,0,0,131.48,254.23Z" transform="translate(-16.46 -16.46)"/><path class="cls-1" d="M132.16,280.13a63.44,63.44,0,0,0,12.13,8.56,39.4,39.4,0,0,0,6.78,2.77,29.37,29.37,0,0,0,7.12,1.29A22.64,22.64,0,0,0,172,289.4a16.89,16.89,0,0,0,2.79-2.27,35.32,35.32,0,0,0,2.49-2.72,14.64,14.64,0,0,0,2-3.09,10.66,10.66,0,0,0,.9-3.58,9.62,9.62,0,0,1-.41,3.76A13.79,13.79,0,0,1,178,285a33.21,33.21,0,0,1-2.32,3,15.62,15.62,0,0,1-2.85,2.66,18.28,18.28,0,0,1-3.34,2,24.45,24.45,0,0,1-3.67,1.34,25.49,25.49,0,0,1-7.73.74,32.12,32.12,0,0,1-14.55-4.68A44.15,44.15,0,0,1,132.16,280.13Z" transform="translate(-16.46 -16.46)"/><path class="cls-2" d="M367.37,271.72a3.85,3.85,0,0,0-2.78-2.27c-1.47-.33-3.18-.71-5.06-1.15C346,265.23,323.6,259.86,320,256.68c-4.07-3.54-8.72-4.36-12.54-1.63-3.17,2.26-24.51,29.94-31.63,39.23a6,6,0,0,0-.59,6.4l1.94,3.88s32.46-39.7,34.9-43.24c1.61-2.31,5.05-.58,7.25.91a35.85,35.85,0,0,0,8.91,4.33c10,3.26,22.81,5,30.64,6.11,1.64.24,3.05.45,4.18.65C367.36,274.06,367.83,272.91,367.37,271.72Zm-6.81,22.44c-2.68.21-5.42.43-8.24.69-22.38,2-48.72,5.59-75.19,9.71-40.27,6.28-80.86,13.84-108.32,19.2-20.7,4-33.93,6.79-33.93,6.79l5.72,2c7.66-.75,19.31-1.8,33.53-3l10.2-.89h.13c42.86-3.72,103.34-8.75,151.18-12.69l5.33-.44c40.76-3.36,71.09-5.83,71.09-5.83C400.21,302.33,360.56,294.16,360.56,294.16ZM286.42,191.28c-2.46-31.63-32-42.61-49.38-39.84s-33.8,24.57-31.32,43.64c1.82,14,13.31,24.93,19.3,29.75a1.22,1.22,0,0,0,1.89-1.42c-3.08-7.58-9.24-23.91-9.45-33.73-.27-13.13,8.45-27.29,21.53-28.93s32.17,5,34.49,28.93a70.77,70.77,0,0,1-6.64,37.48,1.22,1.22,0,0,0,1.67,1.61C275,225.38,288.29,215.38,286.42,191.28Zm96.22,74.3c-2.56-4.71-10.87-10.37-22.13-16.26-8.59-4.5-18.89-9.14-29.66-13.63-27.53-11.44-55.33-10.62-55.33-10.62,15,12.26,28.35,16.08,50.69,21.53,10.31,2.51,23.27,7.28,34.26,11.68,9.2,3.71,17,7.17,20.71,8.82A1.11,1.11,0,0,0,382.64,265.58Zm-216.3-18.65a35.49,35.49,0,0,0-23.12-3.08,27.83,27.83,0,0,0-8.89,3.59l.55-.57s-18.26-6-15.54-18c2.54-11.12,22.37-11,29-9.83a10,10,0,0,1,1.3.29c4.63,1.36,65.14,2.72,65.14,2.72s-3.54-6.54-36.25-9.27c-9.56-.79-18.85-1.44-27.29-1.53-20.45-.25-36,2.6-38.67,13.79-3.78,15.68,2.89,23.84,14.41,29.57a27,27,0,0,0-1.37,2.42c-6.6,13.42,1,30.63,16.89,38.46a37.1,37.1,0,0,0,10.4,3.35c12.8,2.13,25.18-2.93,30.37-13.46C189.82,272,182.26,254.75,166.34,246.93Zm87.2,19.43a13.13,13.13,0,0,0-9.16-4,13.33,13.33,0,0,0-13.67,13.16,13.5,13.5,0,0,0,4,9.71,13,13,0,0,0,4.25,2.85l-21.49,7a1.22,1.22,0,0,0-.78,1.55,1.21,1.21,0,0,0,1.16.85,1.26,1.26,0,0,0,.38-.06l23.05-7.47a1.23,1.23,0,0,0,.82-.94,12,12,0,0,0,2.32.15,13.36,13.36,0,0,0,13-13.6A13.84,13.84,0,0,0,253.54,266.36Zm-2,16.31a10.15,10.15,0,0,1-7.14,2.66,10.28,10.28,0,0,1-6.83-3,10,10,0,0,1-.21-13.88,10.18,10.18,0,0,1,7-3.2,10.37,10.37,0,0,1,7.4,2.84,9.76,9.76,0,0,1,3,7.4A10.13,10.13,0,0,1,251.52,282.67Zm-25.74.48a1.21,1.21,0,0,0-1.54-.78l-8.38,2.77c-.14-1.66-.34-3.42-.65-5.27l7.91-2.32a1.22,1.22,0,1,0-.68-2.35l-7.64,2.24c-5.09-28.1-9.41-28.42-15.6-30.57,0,0,1.89,17,3.4,34.12l-8.17,2.39a1.23,1.23,0,0,0-.84,1.52,1.25,1.25,0,0,0,1.18.88,1.06,1.06,0,0,0,.35,0l7.7-2.25c1,11.26,1.75,22.18,1.64,27.82a1.51,1.51,0,0,0,2.43,1.23c3.62-2.74,9.67-9.66,9.12-24.85l9-3A1.22,1.22,0,0,0,225.78,283.15Z" transform="translate(-16.46 -16.46)"/><path class="cls-7" d="M341,315.52l-5.33.44h0c-47.78,3.94-108.16,9-151,12.67l-.43.05.12,0-10.2.89.22.23h0c.77.78,1.56,1.55,2.35,2.31,34.54-.41,95-.62,148,1.82a109.43,109.43,0,0,0,16.07-18.17h0Z" transform="translate(-16.46 -16.46)"/><path class="cls-8" d="M163.16,245.56l-.06,0v0Z" transform="translate(-16.46 -16.46)"/><path class="cls-8" d="M205.77,312.82a1.49,1.49,0,0,1-1.3-1.52c.09-5.65-.67-16.56-1.65-27.82l-7.7,2.25a1.41,1.41,0,0,1-.35,0,1.22,1.22,0,0,1-.34-2.4l8.18-2.39c-.26-2.89-.53-5.78-.8-8.59L178,255.87c7.47,8.63,9.9,20,5.23,29.52S168.3,299.8,157.07,299.3l46.5,17.87,2.2-.41Z" transform="translate(-16.46 -16.46)"/><path class="cls-1" d="M244.38,265.28a10.14,10.14,0,0,0-7,3.2,10,10,0,0,0,.21,13.88,10.08,10.08,0,0,0,14,.31,10.18,10.18,0,0,0,3.23-7.15,9.75,9.75,0,0,0-3-7.39A10.34,10.34,0,0,0,244.38,265.28Z" transform="translate(-16.46 -16.46)"/><path class="cls-1" d="M382.64,265.57a1.12,1.12,0,0,1-1.46,1.53c-3.29-1.47-9.84-4.37-17.74-7.6h0c-5-2.05-10.55-4.23-16.15-6.27l-.48-.17-1.76-.64-.67-.23-1.63-.58-.69-.23-1.75-.6-.51-.17c-.75-.26-1.5-.5-2.25-.74l-.36-.12-1.82-.58-.74-.23-1.42-.43-.81-.24-1.35-.39-.78-.22-1.41-.38-.65-.18-2-.51c-22.35-5.44-35.7-9.26-50.69-21.52,0,0,.14-.61.37-1.64h0c-.31.3-.62.58-.92.85l-.28.25-.65.55-.31.25-.64.5-.26.2c-.6.45-1.17.85-1.73,1.22l-.26.16-.57.36-.28.17-.54.31a1.71,1.71,0,0,1-.23.13l-.71.39a1.22,1.22,0,0,1-1.67-1.61,70.67,70.67,0,0,0,6.63-37.48c-2.31-24-21.39-30.57-34.47-28.93s-21.81,15.8-21.54,28.93c.21,9.82,6.37,26.14,9.45,33.73a1.22,1.22,0,0,1-1.89,1.42,79.23,79.23,0,0,0-19.37-7.5c.46.14.89.28,1.31.43l.33.11.85.31.36.14.71.28.33.13.65.29.26.11.73.36.06,0,.7.38.14.07.46.27.17.11.35.22.15.11.28.2.12.09.27.21.06.05.27.24,0,0,.17.17s0,0,.05.05l.09.11,0,.05a.21.21,0,0,1,.06.08l0,0,0,.05,0,0v0s-60.51-1.36-65.14-2.72-27.53-2.46-30.26,9.53,15.54,18,15.54,18l-.55.57c.58-.36,1.17-.69,1.77-1l.05,0c.59-.31,1.2-.6,1.82-.86l.08-.14a25,25,0,0,1,3.06-1h0c.57-.17,1.15-.32,1.74-.46l.11,0c.59-.14,1.2-.26,1.81-.36h0a32.55,32.55,0,0,1,3.86-.4c19.84-1.87,50.52,3.72,50.52,3.72,6.18,2.15,10.51,2.47,15.59,30.56l7.65-2.23A1.22,1.22,0,0,1,224,276a1.24,1.24,0,0,1-.84,1.53l-7.91,2.3c.3,1.86.51,3.62.65,5.29l8.37-2.78a1.23,1.23,0,0,1,.78,2.33l-9,3c.56,15.2-5.5,22.1-9.12,24.85a1.62,1.62,0,0,1-.36.2l-.13,0-.24.05h-.36l-.19,0-.1,0a1.49,1.49,0,0,1-.89-.8h0l-.43,5.1,3.95-.72.31-.06,8.2-1.49.16,0,4-.72.27,0c2.8-.51,5.65-1,8.51-1.51l.27-.05c14.69-2.58,30.12-5.18,45.53-7.59h0c.33-.59.66-1.17,1-1.75l-1.21-2.39a6.08,6.08,0,0,1,.6-6.41c7.12-9.29,28.46-37,31.63-39.23,3.81-2.73,8.47-1.91,12.53,1.64s32.7,10.07,44.64,12.76a3.82,3.82,0,0,1,2.79,2.28c.3.78.19,1.54-1.16,1.76h0s21.14-1.94,15.88-8.81C382.29,265,382.48,265.28,382.64,265.57ZM253.79,284.93a13.32,13.32,0,0,1-9.41,4.19,12.06,12.06,0,0,1-2.32-.15,1.23,1.23,0,0,1-.81.94l-23.06,7.47a1.26,1.26,0,0,1-.38.06,1.22,1.22,0,0,1-.38-2.39l21.49-7a13.1,13.1,0,0,1-4.25-2.84,13.39,13.39,0,0,1,.21-19.22,13.29,13.29,0,0,1,9.5-3.66,13.13,13.13,0,0,1,9.16,4,13.82,13.82,0,0,1,3.87,9.16A13.31,13.31,0,0,1,253.79,284.93Z" transform="translate(-16.46 -16.46)"/><polygon class="cls-1" points="110.47 196.93 110.47 196.93 110.48 196.93 110.47 196.93"/><polygon class="cls-1" points="97.03 205.94 97.03 205.94 97.03 205.94 97.03 205.94"/><path class="cls-1" d="M244.38,265.28a10.14,10.14,0,0,0-7,3.2,10,10,0,0,0,.21,13.88,10.08,10.08,0,0,0,14,.31,10.18,10.18,0,0,0,3.23-7.15,9.75,9.75,0,0,0-3-7.39A10.34,10.34,0,0,0,244.38,265.28Z" transform="translate(-16.46 -16.46)"/><polygon class="cls-1" points="110.47 196.93 110.47 196.93 110.48 196.93 110.47 196.93"/><polygon class="cls-1" points="97.03 205.94 97.03 205.94 97.03 205.94 97.03 205.94"/><path class="cls-9" d="M205.72,217.35a78.82,78.82,0,0,1,19.3,7.48,1.17,1.17,0,0,0,.66.26,1.24,1.24,0,0,1-.66-.26c-6-4.82-17.48-15.74-19.3-29.75C203.24,176,219.66,154.22,237,151.44s46.92,8.21,49.38,39.84c1.3,16.72-4.72,26.65-10.69,32.3l.16-.15h0c-.23,1-.37,1.64-.37,1.64a83.44,83.44,0,0,0,27,14.94,83.34,83.34,0,0,1-27-14.94s27.8-.82,55.33,10.62c10.77,4.49,21.07,9.13,29.66,13.63a108.88,108.88,0,0,0-209.31-38c8.44.09,17.73.74,27.29,1.53C191.85,213.92,200.34,215.67,205.72,217.35Z" transform="translate(-16.46 -16.46)"/><path class="cls-2" d="M92.57,327.42a1.23,1.23,0,0,1-.32-2.41l60.51-15.94a1.22,1.22,0,0,1,1.5.87,1.23,1.23,0,0,1-.87,1.5L92.88,327.38A1.15,1.15,0,0,1,92.57,327.42Z" transform="translate(-16.46 -16.46)"/><path class="cls-2" d="M89.21,313.14a1.22,1.22,0,0,1-.31-2.4l49.2-13.22a1.22,1.22,0,0,1,.63,2.36l-49.2,13.21A1.13,1.13,0,0,1,89.21,313.14Z" transform="translate(-16.46 -16.46)"/><path class="cls-2" d="M86,321.67a1.22,1.22,0,0,1-.33-2.39l53.88-15.15a1.22,1.22,0,0,1,1.5.85,1.2,1.2,0,0,1-.84,1.5L86.29,321.63A1.24,1.24,0,0,1,86,321.67Z" transform="translate(-16.46 -16.46)"/><path class="cls-10" d="M185.18,270.39a1.89,1.89,0,0,0-.05-.23A1.89,1.89,0,0,1,185.18,270.39Z" transform="translate(-16.46 -16.46)"/><path class="cls-10" d="M185.45,272.24v0Z" transform="translate(-16.46 -16.46)"/><path class="cls-10" d="M183.49,264.7a.69.69,0,0,1-.05-.13Z" transform="translate(-16.46 -16.46)"/><path class="cls-10" d="M184.76,268.49a.57.57,0,0,0,0-.14A.57.57,0,0,1,184.76,268.49Z" transform="translate(-16.46 -16.46)"/><path class="cls-10" d="M181.09,288.9c.27-.36.52-.74.77-1.13C181.61,288.16,181.36,288.54,181.09,288.9Z" transform="translate(-16.46 -16.46)"/><path class="cls-10" d="M179.81,290.48c.27-.31.53-.62.78-.94C180.34,289.86,180.08,290.17,179.81,290.48Z" transform="translate(-16.46 -16.46)"/><path class="cls-10" d="M183.94,283.78c.06-.15.12-.3.17-.44C184.06,283.48,184,283.63,183.94,283.78Z" transform="translate(-16.46 -16.46)"/><path class="cls-10" d="M181.64,261l0,.06Z" transform="translate(-16.46 -16.46)"/><path class="cls-10" d="M182.23,287.21c.36-.59.69-1.19,1-1.82C182.92,286,182.59,286.62,182.23,287.21Z" transform="translate(-16.46 -16.46)"/><path class="cls-10" d="M185.39,278.23l.06-.4Z" transform="translate(-16.46 -16.46)"/><path class="cls-10" d="M201.82,272.48c.13,1.34.26,2.69.38,4.06C202.08,275.17,202,273.82,201.82,272.48Z" transform="translate(-16.46 -16.46)"/><path class="cls-10" d="M184.57,282l.11-.32Z" transform="translate(-16.46 -16.46)"/><path class="cls-10" d="M204.61,312l-.06-.2Z" transform="translate(-16.46 -16.46)"/><path class="cls-10" d="M178,255.87h0l23.81,16.53c-1.31-13.76-2.61-25.53-2.61-25.53s-30.43-5.55-50.28-3.74a36.45,36.45,0,0,1,17.42,3.8A37,37,0,0,1,178,255.87Zm-14.9-10.33v0l.06,0Z" transform="translate(-16.46 -16.46)"/><path class="cls-10" d="M202.23,276.82c.13,1.38.25,2.78.38,4.17C202.48,279.6,202.36,278.2,202.23,276.82Z" transform="translate(-16.46 -16.46)"/><path class="cls-10" d="M179.23,291.11c-.27.28-.54.56-.82.82C178.69,291.67,179,291.39,179.23,291.11Z" transform="translate(-16.46 -16.46)"/><path class="cls-10" d="M185.09,280c0-.13,0-.25.07-.37C185.14,279.75,185.12,279.87,185.09,280Z" transform="translate(-16.46 -16.46)"/><path class="cls-10" d="M185.59,276.09v0Z" transform="translate(-16.46 -16.46)"/><path class="cls-10" d="M185.6,274.33c0-.12,0-.24,0-.36C185.59,274.09,185.59,274.21,185.6,274.33Z" transform="translate(-16.46 -16.46)"/><path class="cls-10" d="M169,297.62c.47-.17.94-.36,1.4-.54C169.94,297.26,169.47,297.45,169,297.62Z" transform="translate(-16.46 -16.46)"/><path class="cls-10" d="M206.16,312.82l.11,0-.12,0Z" transform="translate(-16.46 -16.46)"/><path class="cls-10" d="M216.65,314.78l-.15,0,.41-.07h-.1Z" transform="translate(-16.46 -16.46)"/><path class="cls-10" d="M205.8,312.82h0Z" transform="translate(-16.46 -16.46)"/><path class="cls-10" d="M206,312.83Z" transform="translate(-16.46 -16.46)"/><path class="cls-10" d="M229.88,312.43l.15,0-.28.05Z" transform="translate(-16.46 -16.46)"/><path class="cls-10" d="M319.28,262.23c-2.21-1.49-5.65-3.21-7.24-.91-2.45,3.54-34.9,43.24-34.9,43.24,26.46-4.12,52.78-7.69,75.15-9.71.33-.79.67-1.57,1-2.37a107.79,107.79,0,0,0,5.57-19.81c-7.84-1.13-20.66-2.85-30.64-6.11A36,36,0,0,1,319.28,262.23Z" transform="translate(-16.46 -16.46)"/><path class="cls-10" d="M276.39,303.08c-.31.58-.64,1.16-1,1.75h0l-.14,0,1.87-.3-2-3.87Z" transform="translate(-16.46 -16.46)"/><path class="cls-10" d="M221,314l.13,0H221Z" transform="translate(-16.46 -16.46)"/><path class="cls-10" d="M176.88,293.27c.3-.24.59-.49.88-.74C177.47,292.78,177.18,293,176.88,293.27Z" transform="translate(-16.46 -16.46)"/><path class="cls-10" d="M159.52,299.32h0Z" transform="translate(-16.46 -16.46)"/><path class="cls-10" d="M171.5,296.59c.41-.19.83-.38,1.23-.59C172.33,296.21,171.91,296.4,171.5,296.59Z" transform="translate(-16.46 -16.46)"/><path class="cls-10" d="M173.48,295.57c.34-.19.69-.38,1-.59C174.17,295.19,173.82,295.38,173.48,295.57Z" transform="translate(-16.46 -16.46)"/><path class="cls-10" d="M167,298.23c.36-.09.71-.21,1.06-.32C167.71,298,167.36,298.14,167,298.23Z" transform="translate(-16.46 -16.46)"/><path class="cls-10" d="M175.24,294.48c.32-.21.63-.43.94-.66C175.87,294.05,175.56,294.27,175.24,294.48Z" transform="translate(-16.46 -16.46)"/><path class="cls-10" d="M203.57,317.17l-46.5-17.87h.23a37.37,37.37,0,0,1-4.42-.44,108.75,108.75,0,0,0,15.94,24.88c10.17-2,22.15-4.26,35.24-6.67Z" transform="translate(-16.46 -16.46)"/><path class="cls-10" d="M164.94,298.71c.35-.06.69-.15,1-.22C165.63,298.56,165.29,298.65,164.94,298.71Z" transform="translate(-16.46 -16.46)"/><path class="cls-10" d="M162.83,299.06l1-.15Z" transform="translate(-16.46 -16.46)"/><path class="cls-10" d="M160.66,299.26l1-.08Z" transform="translate(-16.46 -16.46)"/><path class="cls-10" d="M274.55,298.35a6.27,6.27,0,0,0,.63,2.34l1.21,2.39c-.31.57-.64,1.16-1,1.75l1.71-.27-1.94-3.88A6.06,6.06,0,0,1,274.55,298.35Z" transform="translate(-16.46 -16.46)"/><path class="cls-1" d="M161.55,207a65,65,0,0,1,6.36-12.53A78.66,78.66,0,0,1,187.12,174a64.91,64.91,0,0,1,12.08-7.18c-3.68,2.9-7.28,5.79-10.73,8.85s-6.75,6.25-9.88,9.6-6.1,6.85-8.94,10.49S164.18,203.15,161.55,207Z" transform="translate(-16.46 -16.46)"/><path class="cls-1" d="M280,156.48a87.33,87.33,0,0,1,24.32,9.65c1.87,1.14,3.73,2.32,5.58,3.5l5.34,3.89c1.69,1.4,3.36,2.84,5,4.26l4.75,4.59,4.39,4.93c1.36,1.73,2.74,3.45,4.07,5.2s2.46,3.65,3.67,5.49,2.22,3.79,3.27,5.71a87.2,87.2,0,0,1,8.68,24.69,119.52,119.52,0,0,0-10.55-23.64l-3.42-5.46c-1.23-1.76-2.5-3.5-3.74-5.24l-4-5L323,184.27l-4.58-4.51-4.86-4.22-5.08-3.95c-1.79-1.19-3.55-2.42-5.32-3.64A119.61,119.61,0,0,0,280,156.48Z" transform="translate(-16.46 -16.46)"/></svg>